# xmcd CD database file
#
# Track frame offsets:
#	150
#	13974
#	28497
#	39099
#	52530
#	68009
#	79902
#	93878
#	106507
#	118564
#	131128
#	145877
#
# Disc length: 2148 seconds
#
# Revision: 0
# Processed by: cddbd v1.5.2PL0 Copyright (c) Steve Scherf et al.
# Submitted via: CDex 1.51
#
DISCID=9308620c
DTITLE=Tito Rodriguez - Amor Por Favor
DYEAR=1900
DGENRE=Salsa
TTITLE0=Quedemos Como Amigos
TTITLE1=Una Vez Mas
TTITLE2=Bello Amanecer
TTITLE3=Cuando Estes Sola
TTITLE4=Fiesta De Besos
TTITLE5=Beso Extraño
TTITLE6=Quedate Conmigo
TTITLE7=Untate En Mi
TTITLE8=De Enero A Enero
TTITLE9=En Puerto Azul Venezuela
TTITLE10=No Insistas Mas
TTITLE11=Si Mi Corazon Pudiera
EXTD=
EXTT0=
EXTT1=
EXTT2=
EXTT3=
EXTT4=
EXTT5=
EXTT6=
EXTT7=
EXTT8=
EXTT9=
EXTT10=
EXTT11=
PLAYORDER=
